<svg width="830" height="830" viewBox="0 0 830 830" fill="none" xmlns="http://www.w3.org/2000/svg">
<path d="M636.345 609.354C637.443 609.907 638.542 610.459 639.674 611.029C638.026 611.029 636.378 611.029 634.68 611.029C635.229 610.476 635.779 609.924 636.345 609.354Z" fill="white"/>
<path d="M644.668 602.657C645.767 603.209 646.866 603.762 647.998 604.331C646.35 605.989 644.702 607.646 643.004 609.354C641.905 608.802 640.806 608.249 639.674 607.68C641.322 606.022 642.97 604.365 644.668 602.657Z" fill="white"/>
<path d="M181.871 599.308C187.336 601.804 191.744 604.978 196.437 608.726C198.433 610.313 198.433 610.313 200.469 611.931C201.474 612.738 202.478 613.545 203.513 614.377C196.693 614.377 193.923 611.775 188.53 607.68C184.576 603.076 184.576 603.076 181.871 599.308Z" fill="white"/>
<path d="M744.553 463.691C747.025 465.348 747.025 465.348 749.547 467.039C747.349 467.039 745.152 467.039 742.888 467.039C743.437 465.934 743.987 464.829 744.553 463.691Z" fill="white"/>
<path d="M85.3163 463.691C86.9644 464.243 88.6125 464.796 90.3105 465.365C89.7611 466.47 89.2118 467.575 88.6458 468.714C86.9977 468.161 85.3496 467.609 83.6516 467.039C84.2009 465.934 84.7503 464.829 85.3163 463.691Z" fill="white"/>
<path d="M379.975 299.61C384.938 303.118 386.393 305.271 387.778 311.226C387.95 312.918 388.122 314.61 388.299 316.353C389.511 324.22 392.182 331.433 394.873 338.884C395.364 340.258 395.856 341.632 396.362 343.048C397.404 345.96 398.45 348.872 399.498 351.783C401.067 356.141 402.629 360.503 404.188 364.865C410.119 381.437 410.119 381.437 416.259 397.932C416.726 399.164 417.193 400.396 417.674 401.666C418.55 403.968 419.434 406.268 420.326 408.564C422.119 413.271 423.258 416.74 423.258 421.834C424.357 421.834 425.456 421.834 426.588 421.834C426.752 420.772 426.917 419.71 427.087 418.616C428.692 411.52 431.14 404.811 433.585 397.968C434.117 396.467 434.649 394.966 435.197 393.419C436.325 390.242 437.456 387.065 438.59 383.89C440.3 379.095 441.999 374.296 443.697 369.496C448.804 355.115 453.903 340.833 460.16 326.909C462.28 321.013 461.764 315.877 461.547 309.656C463.316 304.738 463.316 304.738 466.541 301.285C472.421 299.672 476.333 298.97 482.148 300.971C484.853 302.959 484.853 302.959 486.518 306.308C486.739 309.447 486.739 309.447 486.726 313.005C486.731 314.179 486.735 315.353 486.739 316.563C486.518 319.702 486.518 319.702 484.853 323.05C486.364 322.912 487.875 322.774 489.432 322.632C512.507 322.865 531.696 338.002 547.18 353.739C549.18 355.804 551.18 357.87 553.177 359.938C566.58 373.734 579.807 381.969 599.2 383.953C604.954 383.569 604.954 383.569 610.749 380.709C616.613 378.197 618.78 377.994 624.692 379.976C622.155 398.972 604.287 415.371 591.397 428.531C590.388 429.567 589.38 430.603 588.34 431.67C575.414 443.846 558.576 451.032 540.947 450.748C526.635 449.308 514.195 440.56 502.158 433.227C487.793 425.546 470.386 423.819 454.68 428.361C451.861 429.523 449.068 430.757 446.324 432.089C443.235 433.554 443.235 433.554 439.906 433.554C439.322 435.211 438.738 436.869 438.137 438.576C437.808 439.509 437.48 440.441 437.142 441.402C435.317 453.888 440.336 465.517 444.653 476.954C445.945 480.466 447.237 483.978 448.528 487.491C450.569 492.986 452.616 498.478 454.667 503.969C456.65 509.295 458.612 514.628 460.572 519.963C461.194 521.607 461.817 523.252 462.458 524.947C463.019 526.478 463.581 528.01 464.159 529.588C464.66 530.931 465.162 532.274 465.678 533.657C466.656 537.851 466.494 540.086 464.877 544.057C460.771 546.4 457.934 547.494 453.199 547.189C449.894 545.731 449.894 545.731 447.705 541.941C446.77 539.47 446.77 539.47 445.817 536.948C444.766 534.216 444.766 534.216 443.694 531.429C442.993 529.518 442.292 527.608 441.57 525.64C440.889 523.826 440.207 522.013 439.505 520.145C437.481 514.701 435.513 509.239 433.559 503.769C432.882 501.906 432.205 500.042 431.507 498.122C430.549 495.449 430.549 495.449 429.572 492.723C428.71 490.324 428.71 490.324 427.831 487.876C426.588 483.782 426.588 483.782 426.588 478.759C425.489 478.759 424.39 478.759 423.258 478.759C423.003 479.666 422.747 480.572 422.484 481.506C418.904 493.871 414.763 506.019 410.429 518.134C409.61 520.44 408.801 522.75 408.004 525.064C406.839 528.442 405.64 531.806 404.432 535.169C403.732 537.158 403.031 539.147 402.31 541.196C399.952 545.731 399.952 545.731 396.68 547.379C391.438 547.42 387.777 544.938 383.304 542.383C385.471 531.558 388.469 521.549 392.363 511.238C393.483 508.212 394.602 505.186 395.722 502.16C397.476 497.457 399.234 492.755 400.994 488.053C402.704 483.472 404.401 478.886 406.097 474.299C406.888 472.208 406.888 472.208 407.695 470.075C411.356 460.157 414.379 451.338 411.709 440.774C406.768 432.793 400.583 430.317 391.888 427.556C367.845 422.869 349.78 430.86 330.267 443.926C318.014 451.008 304.895 452.098 291.152 449.577C280.524 446.512 272.118 440.27 263.443 433.554C262.057 432.503 260.671 431.451 259.242 430.369C245.324 418.512 235.204 401.834 225.154 386.673C224.946 382.174 224.946 382.174 225.154 378.302C230.93 378.999 236.069 379.679 241.49 381.86C254.989 385.587 266.544 381.185 278.517 374.718C288.217 368.559 296.182 360.723 303.982 352.318C321.163 333.997 338.721 324.987 363.328 321.376C363.008 319.542 362.688 317.707 362.359 315.817C361.569 308.829 362.39 306.689 366.657 301.285C371.386 298.906 374.739 299.084 379.975 299.61Z" fill="white"/>
<path d="M544.784 150.598C555.882 152.583 563.793 162.075 570.171 170.899C575.075 178.698 577.554 186.926 579.978 195.778C581.291 200.414 582.875 204.762 584.738 209.199C585.836 209.199 586.935 209.199 588.067 209.199C589.741 211.048 591.32 212.985 592.853 214.954C600.582 224.179 609.963 230.717 619.697 237.662C619.697 231.868 618.221 228.893 615.848 223.639C608.731 206.784 605.394 190.673 606.379 172.364C623.611 189.694 630.12 221.426 634.68 244.359C635.217 246.596 635.763 248.83 636.345 251.056C637.237 249.951 638.13 248.846 639.05 247.707C644.046 243.476 646.646 244.079 652.992 244.359C652.934 243.2 652.876 242.041 652.816 240.847C652.416 226.275 654.761 213.288 657.986 199.153C659.634 198.6 661.282 198.048 662.98 197.479C664.062 200.651 665.136 203.825 666.206 207.001C667.104 209.653 667.104 209.653 668.02 212.358C670.93 221.723 671.476 230.177 671.291 239.957C671.262 242.707 671.234 245.457 671.207 248.208C671.155 252.514 671.096 256.819 671.019 261.125C670.948 265.301 670.909 269.476 670.875 273.652C670.844 274.929 670.813 276.206 670.781 277.522C670.73 288.204 673.669 294.776 680.564 303.064C684.362 307.667 685.906 310.867 687.952 316.353C690.112 319.741 692.321 323.098 694.61 326.399C693.622 317.462 692.17 308.738 690.43 299.921C685.751 275.931 685.137 255.176 689.616 230.964C690.715 230.964 691.814 230.964 692.946 230.964C694.307 235.217 695.658 239.473 697.004 243.731C697.578 245.521 697.578 245.521 698.164 247.348C698.534 248.524 698.905 249.7 699.286 250.912C699.626 251.982 699.966 253.051 700.316 254.154C702.834 263.663 703.121 272.658 702.98 282.416C702.959 285.275 702.938 288.134 702.918 290.994C702.877 295.449 702.83 299.905 702.774 304.361C702.404 330.799 702.404 330.799 707.928 356.536C709.027 356.536 710.126 356.536 711.258 356.536C711.138 354.913 711.018 353.29 710.894 351.618C710.466 345.591 710.111 339.562 709.793 333.528C709.665 331.112 709.529 328.696 709.38 326.281C707.799 298.56 716.624 276.744 729.57 252.73C731.767 253.283 733.965 253.835 736.229 254.404C736.229 264.35 736.229 274.295 736.229 284.542C746.018 279.253 746.018 279.253 753.292 272.403C757.871 267.799 757.871 267.799 762.865 267.799C761.97 278.396 758.502 287.171 754.333 296.89C753.419 299.136 753.419 299.136 752.486 301.429C746.822 314.759 738.852 325.105 729.154 335.712C718.019 348.941 716.904 366.56 717.917 383.325C719.31 392.472 721.827 401.297 724.576 410.114C724.835 408.9 725.094 407.687 725.361 406.436C726.571 400.821 727.81 395.212 729.05 389.603C729.456 387.696 729.863 385.788 730.282 383.822C734.071 366.842 739.879 351.177 748.402 336.026C749.254 334.498 750.106 332.97 750.984 331.396C751.608 330.299 752.233 329.203 752.876 328.073C753.975 328.073 755.074 328.073 756.206 328.073C756.523 338.336 755.444 347.642 753.397 357.687C753.103 359.151 752.809 360.614 752.506 362.122C750.291 372.616 747.297 382.263 743.135 392.154C741.124 396.955 739.479 401.807 737.894 406.765C738.658 405.876 739.422 404.987 740.209 404.07C751.94 390.487 751.94 390.487 756.206 386.673C757.305 386.673 758.403 386.673 759.535 386.673C759.535 385.568 759.535 384.463 759.535 383.325C760.634 383.325 761.733 383.325 762.865 383.325C763.512 381.862 763.512 381.862 764.172 380.369C766.342 376.354 768.72 373.585 771.917 370.349C772.91 369.322 773.904 368.294 774.928 367.236C777.847 364.908 777.847 364.908 782.842 364.908C779.721 386.878 764.539 418.93 747.882 433.554C742.888 436.902 742.888 436.902 739.37 438.413C735.234 440.371 732.611 441.806 729.57 445.274C727.858 453.111 727.749 460.714 727.905 468.714C727.905 470.371 727.905 472.029 727.905 473.737C728.429 472.727 728.952 471.716 729.492 470.676C737.499 455.637 737.499 455.637 742.888 451.971C748.714 451.029 748.714 451.029 754.541 451.971C758.599 456.157 758.599 456.157 761.2 460.342C767.106 459.194 771.767 456.769 777.015 453.854C778.577 452.995 780.14 452.136 781.749 451.251C786.153 448.765 786.153 448.765 789.761 445.784C792.83 443.599 792.83 443.599 797.824 443.599C795.4 463.715 775.761 482.918 761.2 495.502C754.665 499.751 747.864 503.301 740.911 506.804C730.092 512.354 720.37 517.54 711.258 525.64C710.159 525.64 709.06 525.64 707.928 525.64C707.469 526.837 707.01 528.035 706.537 529.269C704.628 533.94 702.498 538.403 700.229 542.906C699.486 544.384 698.744 545.863 697.979 547.386C697.417 548.497 696.854 549.609 696.275 550.754C697.614 550.204 697.614 550.204 698.98 549.642C703.618 547.755 708.268 545.901 712.923 544.057C713.939 543.653 714.956 543.25 716.003 542.835C751.119 528.988 751.119 528.988 766.194 528.988C763.946 540.804 751.876 550.091 742.888 557.451C729.521 566.566 712.553 574.194 696.275 574.194C696.275 575.299 696.275 576.404 696.275 577.543C711.657 577.543 727.04 577.543 742.888 577.543C742.888 579.2 742.888 580.858 742.888 582.566C719.283 593.313 692.931 599.958 667.004 596.309C660.76 595.536 658.396 595.686 653.044 599.256C651.928 600.378 650.812 601.501 649.663 602.657C649.663 597.634 649.663 597.634 652.16 594.809C652.984 594.084 653.808 593.358 654.657 592.611C650.904 592.223 650.904 592.223 647.79 596.064C646.718 597.191 646.718 597.191 645.624 598.34C640.583 603.423 635.092 608.021 629.686 612.703C631.334 613.255 632.982 613.808 634.68 614.377C630.834 617.14 626.989 619.902 623.027 622.748C631.937 621.934 640.724 620.924 649.558 619.505C661.519 617.746 673.508 616.761 685.558 615.842C688.364 615.622 688.364 615.622 691.225 615.398C704.027 614.466 716.737 614.21 729.57 614.377C725.44 618.824 721.984 621.956 716.395 624.305C715.143 624.837 713.891 625.369 712.601 625.916C711.265 626.459 709.929 627.003 708.553 627.562C706.463 628.425 706.463 628.425 704.332 629.306C672.03 642.447 641.956 651.848 606.796 645.665C594.846 643.899 589.279 645.933 579.744 652.886C577.411 654.155 575.052 655.378 572.668 656.548C571.595 657.081 570.522 657.614 569.417 658.164C565.707 659.924 561.942 661.483 558.102 662.931C558.102 663.484 558.102 664.036 558.102 664.606C565.755 664.896 572.367 664.505 579.848 662.827C599.72 658.978 620.166 663.538 639.761 667.33C644.477 668.238 649.203 669.088 653.928 669.943C656.391 670.395 658.853 670.848 661.316 671.303C660.766 672.96 660.217 674.618 659.651 676.326C648.557 678.885 637.949 680.373 626.564 680.407C625.034 680.412 623.505 680.417 621.929 680.423C599.907 680.058 577.437 675.861 556.121 670.362C544.888 667.627 533.217 668.986 522.583 673.108C515.387 675.613 507.973 677.164 500.553 678.857C493.591 680.45 486.732 682.22 479.859 684.174C467.321 687.415 454.45 687.601 441.57 688.046C440.472 685.836 439.373 683.626 438.241 681.349C441.216 678.356 445.36 679.206 449.353 678.934C484.777 676.344 540.065 669.352 566.426 642.84C566.807 638.124 566.807 638.124 566.575 632.598C566.542 630.509 566.509 628.42 566.474 626.267C566.374 621.894 566.266 617.52 566.149 613.147C565.874 594.447 569.087 578.459 576.414 561.323C577.238 559.348 578.062 557.373 578.911 555.339C581.408 550.754 581.408 550.754 586.402 549.08C593.084 614.603 593.084 614.603 576.414 637.817C575.315 638.37 574.217 638.922 573.085 639.491C573.634 640.044 574.183 640.596 574.749 641.166C577.666 639.603 580.579 638.031 583.489 636.457C585.112 635.583 586.734 634.709 588.405 633.808C589.942 632.921 591.478 632.034 593.061 631.12C594.355 630.483 595.649 629.847 596.983 629.191C601.528 624.055 600.171 617.932 599.824 611.447C599.17 579.718 609.824 555.699 623.027 527.314C624.125 527.314 625.224 527.314 626.356 527.314C626.906 546.652 627.455 565.99 628.021 585.914C630.768 580.389 633.515 574.864 636.345 569.171C641.404 563.955 645.624 560.99 652.992 560.8C656.842 563.207 656.842 563.207 659.651 565.823C660.427 554.771 658.4 548.208 653.096 538.615C651.861 536.308 650.632 533.997 649.409 531.683C648.86 530.681 648.31 529.679 647.745 528.646C644.844 522.467 644.5 517.188 644.811 510.407C644.884 508.79 644.957 507.172 645.032 505.506C645.118 503.828 645.204 502.15 645.293 500.421C645.366 498.736 645.439 497.052 645.514 495.316C646.114 482.77 646.114 482.77 647.998 477.085C649.097 477.085 650.195 477.085 651.327 477.085C653.935 484.576 656.511 492.077 659.06 499.588C659.928 502.133 660.805 504.676 661.69 507.215C668.223 525.978 671.375 542.479 671.304 562.474C689.267 543.197 689.267 543.197 697.94 518.942C697.52 510.077 692.825 503.571 686.508 497.576C684.208 495.563 681.893 493.569 679.563 491.591C668.092 481.801 662.357 473.249 657.778 459.087C657.338 457.792 656.898 456.497 656.445 455.162C653.702 446.815 652.142 438.959 651.327 430.205C660.372 430.205 663.44 434.074 669.639 440.251C671.914 442.996 674.143 445.781 676.298 448.622C677.322 449.589 678.346 450.556 679.4 451.552C694.571 467.619 700.562 489.405 704.599 510.571C712.354 490.316 721.613 464.936 712.923 443.599C707.526 431.787 707.526 431.787 697.94 423.508C693.67 422.527 689.563 421.747 685.246 421.101C668.878 418.3 653.355 413.984 641.339 401.742C637.563 396.377 634.44 390.783 631.35 384.999C630.434 383.516 629.518 382.034 628.574 380.506C626.356 376.628 626.356 376.628 626.356 373.279C637.664 375.533 648.076 378.835 658.819 383.011C660.293 383.565 661.767 384.118 663.286 384.689C692.1 395.774 702.702 411.71 716.252 438.576C716.801 438.576 717.351 438.576 717.917 438.576C719.013 415.465 716.129 390.019 707.928 368.256C703.653 363.957 701.984 364.488 696.048 364.45C694.308 364.421 692.569 364.391 690.777 364.361C688.917 364.334 687.058 364.307 685.142 364.28C657.729 363.47 625.742 357.875 604.715 338.119C604.715 336.461 604.715 334.804 604.715 333.096C666.999 333.823 666.999 333.823 690.449 350.369C694.989 353.444 699.666 355.838 704.599 358.211C694.38 330.607 694.38 330.607 676.298 309.656C664.257 309.758 652.395 312.716 640.695 315.313C620.192 318.858 606.945 310.552 590.35 299.283C586.402 296.262 586.402 296.262 584.738 292.913C586.553 292.952 588.369 292.991 590.239 293.031C603.884 293.224 617.085 292.837 630.622 291.03C641.204 289.656 649.457 289.496 659.651 292.913C662.587 293.846 662.587 293.846 665.582 294.797C666.921 295.28 668.26 295.764 669.639 296.262C665.043 290.194 660.797 285.653 654.553 281.298C647.817 276.437 644.922 271.935 641.339 264.45C640.652 263.103 639.965 261.757 639.258 260.369C638.846 259.506 638.434 258.643 638.009 257.753C628.326 258.669 620.587 261.574 611.686 265.392C590.328 274.021 577.55 271.343 556.437 262.776C556.437 260.566 556.437 258.356 556.437 256.079C560.39 255.547 564.343 255.023 568.298 254.509C569.502 254.353 570.705 254.196 571.944 254.035C579.745 253.054 587.495 252.415 595.35 251.998C605.152 251.387 613.821 249.425 623.027 246.033C604.637 232.962 585.715 230.622 563.616 231.278C541.368 231.401 521.387 223.597 501.501 214.222C501.501 213.116 501.501 212.011 501.501 210.873C502.533 210.994 503.565 211.115 504.629 211.239C513.891 212.215 522.88 212.55 532.194 212.338C549.586 212.249 563.1 216.591 578.593 224.143C585.502 226.917 592.336 227.439 599.72 227.616C593.653 222.372 587.447 218.691 580.264 215.268C567.53 209.016 554.993 202.415 542.495 195.7C540.676 194.733 538.857 193.766 536.983 192.77C527.024 187.397 517.628 181.686 508.485 175C502.997 171.042 497.273 167.533 491.512 163.993C499.033 161.472 505.095 163.971 512.634 165.876C514.088 166.213 515.542 166.55 517.039 166.897C533.013 170.88 544.668 178.421 554.668 191.723C558.625 196.426 562.892 199.293 568.09 202.501C561.065 184.87 553.23 167.588 544.784 150.598ZM558.102 163.993C561.391 179.429 567.378 200.256 579.744 210.873C580.842 210.32 581.941 209.768 583.073 209.199C582.311 208.327 581.549 207.455 580.764 206.556C577.455 201.559 576.448 197.031 575.061 191.2C572.319 180.989 568.951 173.165 561.431 165.667C560.333 165.115 559.234 164.562 558.102 163.993ZM509.825 169.016C509.825 170.121 509.825 171.226 509.825 172.364C521.647 182.735 537.433 188.993 551.443 195.804C549.508 186.712 543.774 182.721 536.46 177.387C527.844 172.439 519.68 169.859 509.825 169.016ZM609.709 190.781C610.656 195.287 611.631 199.784 612.622 204.28C612.884 205.54 613.146 206.799 613.415 208.097C615.362 216.795 618.287 223.423 623.027 230.964C623.576 230.964 624.125 230.964 624.691 230.964C624.396 216.975 621.119 206.49 614.703 194.13C614.154 193.025 613.604 191.92 613.038 190.781C611.94 190.781 610.841 190.781 609.709 190.781ZM659.651 210.873C655.512 223.794 653.191 238.851 657.817 251.939C659.725 255.438 659.725 255.438 662.98 259.427C664.079 258.875 665.178 258.322 666.31 257.753C666.408 252.451 666.466 247.15 666.518 241.847C666.546 240.362 666.574 238.878 666.603 237.348C666.672 227.912 665.651 219.926 662.98 210.873C661.882 210.873 660.783 210.873 659.651 210.873ZM523.142 215.896C523.142 217.001 523.142 218.106 523.142 219.244C537.615 224.976 550.903 227.154 566.426 227.616C566.426 225.958 566.426 224.301 566.426 222.593C564.346 221.786 562.265 220.985 560.183 220.186C559.024 219.739 557.865 219.293 556.671 218.832C549.013 216.12 542.559 215.715 534.379 215.791C531.225 215.814 531.225 215.814 528.007 215.837C526.401 215.856 524.796 215.876 523.142 215.896ZM691.281 247.707C685.508 265.126 691.111 285.466 694.61 302.959C695.709 302.959 696.808 302.959 697.94 302.959C699.379 275.798 699.379 275.798 694.61 249.382C693.512 248.829 692.413 248.277 691.281 247.707ZM644.668 249.382C643.971 254.052 643.971 254.052 644.668 259.427C648.309 263.787 648.309 263.787 652.992 267.799C654.547 269.623 656.074 271.472 657.57 273.345C658.806 274.83 660.042 276.315 661.316 277.845C661.865 277.845 662.414 277.845 662.98 277.845C664.259 267.771 661.458 262.489 655.99 254.104C652.328 250.381 649.765 249.923 644.668 249.382ZM614.221 252.654C609.203 254.601 604.77 255.248 599.428 255.83C597.502 256.046 595.576 256.262 593.591 256.484C591.597 256.696 589.602 256.907 587.547 257.125C584.507 257.462 584.507 257.462 581.405 257.805C576.413 258.357 571.42 258.897 566.426 259.427C566.426 260.532 566.426 261.637 566.426 262.776C585.211 269.973 596.379 267.197 614.703 259.427C616.018 258.875 617.334 258.322 618.689 257.753C621.255 256.66 623.808 255.537 626.356 254.404C626.356 253.299 626.356 252.194 626.356 251.056C621.738 250.79 618.526 250.849 614.221 252.654ZM729.57 267.799C716.562 285.831 713.409 304.445 714.587 326.399C727.654 310.613 731.967 287.762 731.235 267.799C730.685 267.799 730.136 267.799 729.57 267.799ZM735.839 292.599C727.826 301.147 724.761 312.085 721.246 323.05C720.665 324.628 720.083 326.206 719.484 327.831C716.584 335.377 716.584 335.377 717.917 343.142C733.204 326.412 751.804 304.924 752.876 281.193C746 281.193 740.615 287.996 735.839 292.599ZM615.431 295.32C614.302 295.386 613.173 295.451 612.009 295.519C606.637 295.872 601.556 296.363 596.391 297.936C598.777 299.863 601.172 301.78 603.57 303.691C604.903 304.76 606.235 305.828 607.608 306.929C617.312 313.957 630.61 312.484 641.927 310.72C646.05 309.949 650.144 309.097 654.241 308.191C655.57 307.9 656.9 307.61 658.27 307.31C661.535 306.539 664.761 305.6 667.975 304.633C668.524 303.528 669.073 302.423 669.639 301.285C667.854 300.49 666.069 299.696 664.229 298.878C663.225 298.431 662.22 297.984 661.186 297.524C646.928 291.899 630.437 294.424 615.431 295.32ZM619.697 338.119C619.697 339.777 619.697 341.434 619.697 343.142C642.371 354.378 659.117 358.819 684.622 358.211C680.711 354.277 678.035 353.637 672.761 352.141C671.246 351.705 669.731 351.269 668.17 350.82C667.007 350.496 665.844 350.173 664.645 349.839C670.139 350.392 675.632 350.944 681.293 351.513C681.293 350.408 681.293 349.303 681.293 348.165C677.62 346.794 673.943 345.435 670.264 344.084C668.216 343.326 666.169 342.569 664.06 341.788C653.624 338.361 644.081 337.894 633.223 338.014C631.266 338.026 631.266 338.026 629.269 338.037C626.079 338.057 622.888 338.087 619.697 338.119ZM747.882 348.165C740.615 360.702 732.654 377.553 735.28 392.39C735.593 393.266 735.906 394.142 736.229 395.045C746.715 372.476 746.715 372.476 749.547 348.165C748.997 348.165 748.448 348.165 747.882 348.165ZM633.015 378.302C636.287 391.795 645.31 400.545 656.692 407.844C667.07 412.938 679.753 416.811 691.281 416.811C691.34 413.652 691.34 413.652 689.616 410.114C685.885 407.443 682.066 405.517 677.963 403.416C682.358 404.521 686.753 405.626 691.281 406.765C684.783 399.397 678.322 395.581 669.431 391.592C668.184 391.018 666.937 390.443 665.653 389.852C649.887 381.834 649.887 381.834 633.015 378.302ZM769.524 379.976C743.161 402.508 743.161 402.508 729.466 432.089C729.5 433.677 729.535 435.266 729.57 436.902C745.244 432.468 753.817 418.856 761.584 405.483C767.18 395.588 767.18 395.588 771.188 384.999C770.639 383.342 770.09 381.684 769.524 379.976ZM656.321 436.902C659.846 454.272 665.047 473.979 679.68 484.96C680.761 485.676 681.843 486.393 682.957 487.131C683.97 487.847 684.983 488.564 686.027 489.302C688.293 490.872 690.613 492.362 692.946 493.828C694.594 492.999 694.594 492.999 696.275 492.154C693.201 480.154 688.925 470.053 681.917 459.924C680.927 458.486 680.927 458.486 679.918 457.019C678.255 454.703 676.455 452.489 674.634 450.297C673.535 450.297 672.436 450.297 671.304 450.297C670.926 449.33 670.549 448.363 670.16 447.367C667.395 442.599 664.12 440.049 659.651 436.902C658.552 436.902 657.454 436.902 656.321 436.902ZM722.911 450.297C720.182 457.74 718.827 464.714 717.917 472.586C716.743 482.086 715.192 491.233 712.923 500.525C714.021 500.525 715.12 500.525 716.252 500.525C721.4 483.548 724.075 468.04 724.576 450.297C724.026 450.297 723.477 450.297 722.911 450.297ZM759.535 470.388C757.404 473.627 757.404 473.627 755.582 477.085C751.421 484.583 745.765 487.48 738.42 491.519C733.685 494.354 730.773 497.479 727.905 502.2C727.905 503.305 727.905 504.41 727.905 505.548C756.004 497.766 775.03 478.856 791.165 455.319C791.715 453.662 792.264 452.004 792.83 450.297C782.26 450.297 767.1 463.177 759.535 470.388ZM742.849 458.099C738.578 461.011 737.564 463.593 735.709 468.4C735.131 469.826 734.554 471.253 733.959 472.723C732.773 477.608 733.236 480.657 734.564 485.457C743.146 480.633 750.697 475.35 756.206 467.039C756.333 463.504 756.333 463.504 754.541 460.342C750.169 457.728 747.786 456.479 742.849 458.099ZM726.24 490.48C722.698 494.34 722.698 494.34 719.582 498.851C720.131 500.509 720.68 502.166 721.246 503.874C724.542 500.006 727.839 496.139 731.235 492.154C729.587 491.601 727.939 491.049 726.24 490.48ZM649.663 495.502C647.595 515.583 653.122 532.792 664.645 549.08C665.195 549.08 665.744 549.08 666.31 549.08C666.641 540.023 665.532 532.124 663.397 523.337C663.101 522.092 662.805 520.847 662.501 519.564C660.246 510.446 657.241 502.223 652.992 493.828C651.131 493.631 651.131 493.631 649.663 495.502ZM699.605 532.337C697.407 535.257 695.225 538.189 693.05 541.127C691.225 543.574 691.225 543.574 689.363 546.071C686.697 550.129 685.327 552.723 684.622 557.451C691.484 551.142 697.325 544.243 701.269 535.685C700.72 534.58 700.171 533.475 699.605 532.337ZM742.257 537.791C740.869 538.283 739.481 538.774 738.051 539.28C736.592 539.82 735.132 540.361 733.628 540.918C732.132 541.46 730.635 542.003 729.094 542.562C700.84 551.655 700.84 551.655 679.628 570.845C679.628 571.95 679.628 573.056 679.628 574.194C709.221 567.814 735.118 560.409 756.206 537.36C750.728 535.513 747.661 535.851 742.257 537.791ZM621.362 544.057C611.338 562.36 604.453 581.904 604.507 602.971C604.502 604.687 604.498 606.403 604.493 608.17C604.52 612.867 604.52 612.867 606.379 617.726C612.814 615.283 614.654 612.287 617.512 606.11C618.205 604.645 618.899 603.179 619.613 601.669C627.251 584.048 624.877 562.908 624.691 544.057C623.593 544.057 622.494 544.057 621.362 544.057ZM581.408 565.823C571.309 580.719 569.469 600.014 571.42 617.726C572.519 618.831 573.617 619.936 574.749 621.074C583.057 612.718 583.155 602.076 583.236 590.839C583.225 587.837 583.205 584.835 583.177 581.833C583.17 580.289 583.162 578.745 583.154 577.153C583.135 573.376 583.108 569.6 583.073 565.823C582.524 565.823 581.974 565.823 581.408 565.823ZM644.876 571.578C639.863 577.659 634.68 586.156 634.68 594.286C640.115 593.881 641.778 592.19 645.813 588.321C650.609 582.24 650.935 576.79 651.327 569.171C647.783 568.832 647.783 568.832 644.876 571.578ZM667.975 584.24C667.975 585.345 667.975 586.45 667.975 587.588C682.736 595.012 711.303 589.179 726.24 584.24C727.339 583.135 728.438 582.03 729.57 580.891C721.868 580.808 714.167 580.748 706.464 580.707C703.845 580.69 701.226 580.668 698.607 580.639C694.839 580.598 691.07 580.579 687.301 580.564C686.134 580.547 684.967 580.53 683.764 580.512C677.654 580.51 673.167 580.856 667.975 584.24ZM624.691 592.611C626.356 597.634 626.356 597.634 626.356 597.634L624.691 592.611ZM628.021 600.983C626.922 603.193 625.823 605.403 624.691 607.68C626.889 606.575 629.086 605.47 631.35 604.331C631.35 603.226 631.35 602.121 631.35 600.983C630.252 600.983 629.153 600.983 628.021 600.983ZM618.033 619.4C617.483 620.505 616.934 621.61 616.368 622.748C618.016 622.196 619.664 621.643 621.362 621.074C620.263 620.522 619.165 619.969 618.033 619.4ZM688.667 620.1C686.783 620.247 686.783 620.247 684.861 620.397C682.187 620.609 679.515 620.828 676.842 621.052C672.858 621.38 668.873 621.675 664.886 621.967C651.594 623.015 638.648 624.649 625.641 627.647C624.468 627.912 623.296 628.178 622.088 628.451C615.887 629.986 610.994 631.597 606.379 636.143C606.379 637.248 606.379 638.353 606.379 639.491C639.512 648.979 676.722 636.282 706.264 621.074C700.158 619.027 694.963 619.587 688.667 620.1ZM583.073 642.84C573.184 648.641 573.184 648.641 563.096 654.56C564.744 655.389 564.744 655.389 566.426 656.234C570.551 654.568 570.551 654.568 574.957 652.153C577.23 650.965 577.23 650.965 579.548 649.753C581.293 648.817 581.293 648.817 583.073 647.863C583.073 646.205 583.073 644.548 583.073 642.84ZM583.073 667.954C583.622 669.059 584.172 670.164 584.738 671.303C601.461 675.913 619.183 675 636.345 674.651C621.332 664.586 600.341 667.633 583.073 667.954ZM472.264 679.57C463.732 681.352 455.243 682.317 446.564 683.023C446.564 683.575 446.564 684.128 446.564 684.697C458.884 685.08 471.368 685.386 483.189 681.349C483.738 680.244 484.287 679.139 484.853 678C480.268 678 476.712 678.586 472.264 679.57Z" fill="white"/>
<path d="M283.42 150.598C285.068 151.151 286.716 151.703 288.414 152.273C287.53 153.891 286.646 155.51 285.735 157.178C279.194 169.262 273.163 181.191 268.437 194.13C267.334 196.923 266.226 199.714 265.108 202.501C268.412 202.055 268.412 202.055 271.767 200.827C272.316 199.17 272.866 197.512 273.432 195.804C274.53 195.804 275.629 195.804 276.761 195.804C277.86 193.042 278.959 190.279 280.091 187.433C281.189 187.433 282.288 187.433 283.42 187.433C283.969 185.775 284.519 184.118 285.085 182.41C294.483 174.142 304.78 170.259 316.715 167.341C319.041 166.748 321.367 166.153 323.692 165.556C330.237 163.885 336.791 162.257 343.351 160.644C343.351 161.749 343.351 162.854 343.351 163.993C341.861 164.824 340.372 165.655 338.838 166.511C329.623 171.702 320.544 176.823 312.033 183.142C297.33 193.791 280.589 201.478 264.371 209.493C263.241 210.052 262.11 210.611 260.946 211.187C259.844 211.732 258.742 212.277 257.606 212.838C249.096 217.106 241.155 221.953 233.478 227.616C246.214 227.557 256.02 223.823 267.455 218.361C280.116 213.138 291.693 212.132 305.27 212.547C315.398 212.854 323.737 212.557 333.362 209.199C331.697 214.222 331.697 214.222 327.373 216.674C305.869 225.867 286.379 231.573 262.879 230.972C244.673 230.617 226.995 233.601 211.836 244.359C211.287 244.911 210.738 245.464 210.172 246.033C221.908 250.085 232.985 252.061 245.339 252.939C248.465 253.186 251.591 253.434 254.716 253.685C256.925 253.857 256.925 253.857 259.179 254.033C265.066 254.546 270.905 255.289 276.761 256.079C276.761 258.289 276.761 260.499 276.761 262.776C273.237 264.206 269.696 265.592 266.148 266.962C264.178 267.739 262.208 268.516 260.179 269.316C245.13 274.061 232.787 270.457 218.703 264.45C215.66 263.185 212.612 261.929 209.56 260.683C207.575 259.841 207.575 259.841 205.549 258.983C201.444 257.403 201.444 257.403 195.189 257.753C194.584 258.985 193.979 260.218 193.355 261.488C188.329 271.3 184.241 278.225 175.212 284.542C173.976 285.543 172.74 286.545 171.466 287.576C168.553 289.565 168.553 289.565 165.224 289.565C165.224 291.775 165.224 293.985 165.224 296.262C166.151 295.919 167.078 295.575 168.033 295.222C169.303 294.771 170.574 294.32 171.883 293.855C173.119 293.408 174.355 292.961 175.628 292.501C187.015 289.362 196.676 289.571 208.195 291.239C218.518 292.596 227.843 293.115 238.199 291.396C242.524 291.207 244.798 292.367 248.461 294.587C244.745 298.682 241.037 301.197 236.183 303.796C232.034 306.041 228.002 308.286 224.01 310.807C207.494 320.235 189.812 314.937 172.26 310.696C166.825 309.644 162.403 308.993 156.9 309.656C150.196 314.549 146.657 322.044 142.75 329.224C142.093 330.414 141.437 331.603 140.76 332.828C136.235 341.111 132.172 349.462 128.599 358.211C130.329 357.2 132.059 356.19 133.841 355.15C152.68 344.251 169.418 334.928 191.58 334.241C193.731 334.171 195.882 334.1 198.099 334.028C200.354 333.962 202.61 333.895 204.865 333.829C207.153 333.756 209.441 333.683 211.729 333.61C217.314 333.432 222.899 333.261 228.484 333.096C227.978 336.213 227.978 336.213 226.819 339.793C222.814 342.639 219.038 345.001 214.75 347.328C213.556 347.989 212.362 348.651 211.132 349.332C195.407 357.776 178.412 363.382 160.477 363.469C157.734 363.517 157.734 363.517 154.936 363.567C151.1 363.624 147.263 363.654 143.426 363.659C141.602 363.7 139.778 363.741 137.898 363.783C136.234 363.798 134.57 363.814 132.855 363.83C128.238 364.523 128.238 364.523 125.613 368.893C116.509 388.784 113.447 415.196 115.281 436.902C115.831 437.455 116.38 438.007 116.946 438.577C117.407 437.716 117.868 436.856 118.342 435.969C120.467 432.018 122.608 428.077 124.75 424.136C125.474 422.783 126.198 421.429 126.944 420.035C133.914 407.262 140.176 398.21 153.674 391.801C154.807 391.249 155.94 390.696 157.106 390.127C166.68 385.599 176.495 381.789 186.449 378.197C187.876 377.676 189.303 377.155 190.774 376.618C192.119 376.153 193.465 375.688 194.851 375.209C196.041 374.794 197.232 374.379 198.458 373.952C202.342 373.181 204.781 373.72 208.507 374.953C197.135 394.908 186.497 411.336 163.559 418.485C157.454 419.763 151.312 420.784 145.124 421.561C137.196 422.666 132.556 424.439 126.935 430.205C116.497 445.792 116.223 459.613 119.04 477.602C121.154 488.174 123.78 499.204 128.599 508.897C128.945 507.356 129.29 505.815 129.646 504.227C136.896 474.267 151.288 446.76 176.877 428.531C178.525 429.083 180.173 429.636 181.871 430.205C181.013 441.389 178.794 450.901 174.9 461.389C174.435 462.74 173.971 464.091 173.492 465.483C168.212 479.926 159.714 489.005 146.911 497.177C145.813 497.177 144.714 497.177 143.582 497.177C143.136 498.109 142.689 499.041 142.229 500.002C140.253 503.874 140.253 503.874 137.339 507.327C133.899 515.459 135.877 522.461 138.588 530.663C144.593 542.597 152.807 552.779 161.894 562.474C161.817 561.175 161.74 559.875 161.66 558.537C161.164 543.595 163.866 531.33 168.553 517.268C169.689 513.796 170.825 510.323 171.961 506.85C175.224 496.914 178.534 486.996 181.871 477.085C182.97 477.085 184.068 477.085 185.2 477.085C188.883 503.736 190.305 521.557 177.293 545.94C173.347 553.61 172.76 558.95 173.547 567.497C175.195 565.287 176.843 563.077 178.542 560.8C186.727 561.566 191.088 563.224 196.854 569.171C199.6 574.144 202.347 579.116 205.177 584.24C205.727 565.454 206.276 546.669 206.842 527.314C207.941 527.314 209.04 527.314 210.172 527.314C213.567 535.069 216.942 542.832 220.301 550.603C221.626 553.646 222.978 556.678 224.335 559.708C230.316 573.378 234.066 585.695 232.964 600.741C231.229 616.999 231.229 616.999 237.62 631.113C242.803 634.582 247.68 637.174 253.455 639.491C255.84 640.469 255.84 640.469 258.273 641.467C260.008 642.146 260.008 642.146 261.778 642.84C260.976 641.787 260.173 640.734 259.346 639.648C240.57 614.059 243.397 579.537 246.796 549.08C251.79 550.754 251.79 550.754 254.71 556.614C255.733 559.118 256.735 561.63 257.721 564.148C258.226 565.372 258.731 566.596 259.252 567.857C266.933 587.009 267.043 603.964 266.35 624.501C266.295 627.531 266.295 627.531 266.239 630.623C266.183 632.447 266.127 634.271 266.07 636.151C266.951 642.439 269.043 645.052 273.432 649.537C277.442 652.358 281.846 654.181 286.333 656.13C288.276 656.983 288.276 656.983 290.257 657.854C322.155 671.213 358.871 677.928 393.293 679.674C393.293 686.372 393.293 686.372 391.628 688.046C361.631 690.163 326.529 679.058 298.403 669.629C284.822 668.517 272.184 670.788 258.969 673.71C242.075 677.344 226.135 680.002 208.819 679.988C207.362 679.989 205.906 679.99 204.405 679.992C193.852 679.905 183.804 678.976 173.547 676.326C172.723 673.84 172.723 673.84 171.883 671.303C233.712 658.841 233.712 658.841 257.779 663.828C263.058 664.855 268.071 664.813 273.432 664.606C273.981 664.053 274.53 663.501 275.096 662.932C273.136 662.171 273.136 662.171 271.136 661.395C255.126 654.974 255.126 654.974 249.189 649.851C241.984 644.2 233.85 645.378 225.154 646.189C223.334 646.465 221.515 646.741 219.64 647.026C179.299 652.527 137.914 636.436 103.628 616.051C103.628 615.499 103.628 614.946 103.628 614.377C119.765 614.021 135.619 614.953 151.685 616.339C155.668 616.681 159.652 617.001 163.637 617.32C176.059 618.35 188.064 619.691 200.183 622.749C205.803 623.033 205.803 623.033 210.172 622.749C206.875 619.433 206.875 619.433 203.513 616.051C205.161 616.051 206.809 616.051 208.507 616.051C206.936 614.805 206.936 614.805 205.333 613.533C196.186 606.232 187.249 598.764 178.542 590.937C178.542 592.595 178.542 594.252 178.542 595.96C176.378 595.925 174.215 595.891 171.987 595.855C166.716 595.771 161.737 596.204 156.529 596.934C148.298 597.895 140.885 596.967 132.761 595.541C131.446 595.336 130.13 595.131 128.775 594.92C116.001 592.796 103.151 589.309 91.9751 582.566C91.1511 580.079 91.1511 580.079 90.3104 577.543C105.693 577.543 121.075 577.543 136.923 577.543C136.923 576.438 136.923 575.333 136.923 574.194C135.497 573.977 135.497 573.977 134.042 573.756C113.692 570.209 97.1958 563.24 81.9867 549.08C79.83 547.082 79.83 547.082 77.6298 545.044C69.972 537.667 69.972 537.667 67.0041 534.011C67.0041 532.354 67.0041 530.696 67.0041 528.988C77.267 529.999 86.6927 532.159 96.5532 535.162C98.7352 535.82 98.7352 535.82 100.961 536.491C111.283 539.713 120.596 543.647 130.069 548.91C133.424 551.012 133.424 551.012 136.923 550.754C136.082 549.222 135.241 547.689 134.374 546.11C133.281 544.101 132.189 542.091 131.096 540.08C130.541 539.07 129.985 538.06 129.412 537.02C125.27 529.368 125.27 529.368 125.27 525.64C124.336 525.195 123.403 524.75 122.441 524.292C118.294 522.125 114.499 519.65 110.599 517.059C104.193 512.89 97.7353 509.183 90.9367 505.729C78.4867 499.381 68.4632 492.289 58.6804 482.108C57.6267 481.025 56.573 479.941 55.4874 478.825C35.374 456.944 35.374 456.944 35.374 443.599C41.8061 444.533 45.9007 446.323 51.189 450.087C53.1268 451.434 53.1268 451.434 55.1038 452.808C56.8742 454.051 56.8742 454.051 58.6804 455.319C64.8372 459.552 64.8372 459.552 71.9983 460.342C72.9597 458.961 73.921 457.58 74.9116 456.157C78.6572 451.971 78.6572 451.971 84.1717 450.61C93.0875 452.586 97.0987 457.82 101.964 465.365C103.612 469.233 105.26 473.1 106.958 477.085C105.859 465.482 104.76 453.88 103.628 441.925C98.684 440.268 98.684 440.268 93.6399 438.577C75.2017 428.78 66.4214 406.225 57.7439 388.138C57.0083 386.61 56.2726 385.082 55.5147 383.508C54.8404 382.062 54.1662 380.616 53.4716 379.126C52.8695 377.837 52.2674 376.549 51.6471 375.221C50.3567 371.605 50.3567 371.605 50.3567 364.908C57.4728 365.727 60.887 369.859 65.7555 374.849C67.983 377.099 67.983 377.099 70.2555 379.394C73.663 383.325 73.663 383.325 73.663 386.673C74.7617 386.673 75.8605 386.673 76.9925 386.673C83.6856 392.844 89.4768 399.776 95.3046 406.765C93.0994 399.907 90.6116 393.246 87.9173 386.569C80.5206 367.192 77.8132 348.653 76.9925 328.073C81.9867 329.748 81.9867 329.748 83.8234 332.459C84.3825 333.623 84.9417 334.788 85.5178 335.987C86.1441 337.288 86.7705 338.589 87.4158 339.929C88.062 341.335 88.7082 342.74 89.374 344.188C90.0416 345.627 90.7093 347.066 91.3972 348.549C97.0217 361.019 100.765 373.266 103.628 386.673C104.126 388.928 104.625 391.182 105.124 393.436C106.33 398.988 107.496 404.545 108.623 410.114C115.599 387.739 119.462 363.866 109.227 341.67C105.844 336.376 101.533 332.387 96.9824 328.106C86.9958 318.004 81.8884 304.442 76.3682 291.553C75.7716 290.172 75.1751 288.791 74.5604 287.368C69.4769 275.122 69.4769 275.122 70.3335 267.799C72.531 268.351 74.7284 268.904 76.9925 269.473C76.9925 270.578 76.9925 271.683 76.9925 272.822C77.9281 273.266 78.8638 273.711 79.8277 274.169C83.9499 276.327 87.7108 278.784 91.5589 281.402C92.8894 282.305 94.2199 283.207 95.5907 284.136C96.595 284.823 97.5993 285.509 98.6341 286.216C98.0847 285.111 97.5354 284.006 96.9693 282.867C96.7189 278.101 96.5843 273.403 96.5532 268.636C96.5188 267.322 96.4845 266.007 96.4491 264.653C96.4231 260.84 96.4231 260.84 96.9693 254.404C98.6174 253.299 100.266 252.194 101.964 251.056C122.203 287.373 125.666 315.52 121.94 356.536C123.039 356.536 124.138 356.536 125.27 356.536C131.307 336.715 130.622 317.857 130.036 297.364C129.426 274.119 131.043 252.622 140.253 230.964C141.351 230.964 142.45 230.964 143.582 230.964C145.703 235.23 145.799 238.764 146.183 243.522C146.323 245.162 146.462 246.802 146.606 248.492C147.302 261.965 146.763 274.673 144.622 287.995C144.412 289.39 144.202 290.786 143.985 292.223C142.727 300.355 141.165 308.341 139.221 316.337C138.381 320.228 138.381 320.228 138.588 326.399C139.438 324.907 139.438 324.907 140.305 323.384C141.111 321.996 141.918 320.608 142.75 319.179C143.617 317.681 144.485 316.183 145.379 314.64C148.576 309.656 148.576 309.656 152.04 305.842C164.976 291.333 163.297 277.007 162.414 258.695C162.197 252.977 162.019 247.26 161.875 241.54C161.823 239.491 161.823 239.491 161.77 237.401C161.573 222.702 163.942 209.984 171.883 197.479C172.981 198.031 174.08 198.584 175.212 199.153C176.571 204.163 176.571 204.163 177.813 210.664C178.028 211.788 178.244 212.913 178.466 214.071C180.218 223.562 181.293 233.047 181.871 242.684C183.416 243.133 184.961 243.582 186.553 244.045C191.613 245.941 193.359 247.203 196.854 251.056C197.276 249.195 197.699 247.335 198.135 245.418C198.713 242.902 199.292 240.387 199.871 237.871C200.147 236.654 200.422 235.436 200.707 234.182C204.462 217.935 209.131 203.566 217.143 188.898C217.914 187.456 218.686 186.014 219.48 184.529C221.358 181.025 223.249 177.528 225.154 174.039C226.253 174.039 227.352 174.039 228.484 174.039C226.289 193.595 224.259 211.621 215.166 229.29C214.623 230.423 214.08 231.556 213.521 232.724C212.447 234.949 211.32 237.148 210.172 239.336C221.57 232.096 233.338 224.043 241.802 213.384C242.9 212.003 243.999 210.622 245.131 209.199C246.23 209.199 247.329 209.199 248.461 209.199C250.136 204.189 251.782 199.178 253.338 194.13C257.702 180.201 262.818 170.785 273.432 160.644C274.633 159.367 275.835 158.089 277.073 156.772C280.091 153.947 280.091 153.947 283.42 153.947C283.42 152.842 283.42 151.737 283.42 150.598ZM269.549 167.714C262.064 177.07 258.651 187.174 255.25 198.499C253.839 202.96 252.374 206.802 250.125 210.873C251.773 210.873 253.421 210.873 255.119 210.873C263.706 199.515 275.096 180.308 275.096 165.667C271.674 165.29 271.674 165.29 269.549 167.714ZM288.414 184.084C285.311 187.301 282.745 190.513 280.091 194.13C281.739 194.959 281.739 194.959 283.42 195.804C286.739 194.566 286.739 194.566 290.372 192.541C291.75 191.81 293.129 191.08 294.55 190.327C295.993 189.545 297.436 188.762 298.923 187.956C300.347 187.206 301.771 186.456 303.238 185.683C310.461 181.817 317.385 178.064 323.374 172.364C323.374 171.259 323.374 170.154 323.374 169.016C310.383 169.016 298.174 176.027 288.414 184.084ZM220.16 190.781C213.012 204.168 208.478 217.503 206.842 232.639C207.941 232.639 209.04 232.639 210.172 232.639C217.147 219.051 220.808 205.803 223.489 190.781C222.391 190.781 221.292 190.781 220.16 190.781ZM170.218 210.873C167.1 221.439 166.474 230.863 166.68 241.847C166.695 243.384 166.71 244.921 166.726 246.504C166.765 250.254 166.819 254.003 166.888 257.753C168.536 257.753 170.185 257.753 171.883 257.753C176.42 249.939 177.516 244.268 177.397 235.255C177.391 233.15 177.384 231.046 177.378 228.878C176.856 222.328 175.55 217.093 173.547 210.873C172.449 210.873 171.35 210.873 170.218 210.873ZM267.163 223.607C266.485 224.377 265.807 225.148 265.108 225.942C281.411 229.668 297.166 225.185 311.721 217.57C311.721 217.018 311.721 216.465 311.721 215.896C287.999 214.241 287.999 214.241 267.163 223.607ZM140.253 247.707C133.549 258.495 135.039 273.129 135.154 285.379C135.162 286.916 135.169 288.452 135.177 290.035C135.196 293.785 135.224 297.535 135.258 301.285C144.338 293.018 143.264 278.65 143.901 266.988C144.371 256.752 144.371 256.752 140.253 247.707ZM181.871 249.382C178.469 253.092 178.469 253.092 175.628 257.962C174.096 260.352 174.096 260.352 172.533 262.789C169.999 268.272 169.76 271.874 170.218 277.845C173.616 275.139 176.945 272.343 180.206 269.473C180.206 268.368 180.206 267.263 180.206 266.125C181.305 266.125 182.404 266.125 183.536 266.125C187.653 261.983 188.502 259.917 188.842 253.986C188.739 252.467 188.636 250.947 188.53 249.382C186.333 249.382 184.135 249.382 181.871 249.382ZM206.842 251.056C211.04 257.389 215.751 258.75 222.553 261.311C224.254 261.975 224.254 261.975 225.99 262.652C241.428 268.643 251.402 268.665 266.773 262.776C266.773 261.671 266.773 260.566 266.773 259.427C265.801 259.352 264.829 259.277 263.828 259.2C259.328 258.841 254.831 258.454 250.333 258.067C248.805 257.949 247.278 257.832 245.703 257.711C236.303 256.878 227.891 255.206 218.969 252.085C214.785 250.953 211.156 250.881 206.842 251.056ZM101.964 266.125C97.1938 279.755 105.575 297.914 110.391 310.912C110.82 312.069 111.248 313.227 111.689 314.419C113.539 319.226 114.948 322.715 118.611 326.399C119.826 303.75 115.69 285.365 103.628 266.125C103.079 266.125 102.53 266.125 101.964 266.125ZM80.322 281.193C82.2409 299.81 91.9845 314.975 103.212 329.434C103.997 330.446 104.782 331.458 105.591 332.501C109.262 337.056 111.309 339.578 116.946 341.468C111.272 317.387 105.12 295.444 83.6514 281.193C82.5527 281.193 81.454 281.193 80.322 281.193ZM163.559 301.285C172.706 310.485 194.76 311.789 207.154 312.063C220.167 311.575 227.355 306.31 236.807 297.936C232.03 296.548 227.931 296.12 222.969 296.262C218.349 296.322 214.351 296.136 209.755 295.425C192.871 293.16 179.169 294.237 163.559 301.285ZM150.241 349.839C155.393 351.566 157.776 351.471 163.039 350.781C165.408 350.47 167.777 350.159 170.218 349.839C159.505 353.154 159.505 353.154 148.576 356.536C148.576 357.089 148.576 357.641 148.576 358.211C173.542 359.061 191.199 355.238 213.501 343.142C213.501 341.484 213.501 339.827 213.501 338.119C190.271 337.165 171.3 338.774 150.241 349.839ZM83.6514 348.165C84.1709 358.091 86.1975 366.984 89.2699 376.418C89.618 377.514 89.966 378.609 90.3246 379.738C92.2313 385.385 93.9123 389.622 98.6341 393.371C97.5746 377.654 94.222 361.38 85.3162 348.165C84.7668 348.165 84.2174 348.165 83.6514 348.165ZM62.0098 379.976C62.8196 389.734 66.8731 396.853 71.5821 405.195C72.2988 406.517 73.0156 407.839 73.754 409.201C80.0892 420.58 87.3219 428.55 98.6341 435.228C100.282 435.228 101.93 435.228 103.628 435.228C103.628 416.902 87.4286 403.468 75.4318 391.382C69.4744 384.132 69.4744 384.132 62.0098 379.976ZM145.247 401.742C144.148 403.4 143.049 405.057 141.917 406.765C146.312 405.66 150.707 404.555 155.235 403.416C154.274 403.982 153.312 404.547 152.322 405.13C151.086 405.877 149.85 406.623 148.576 407.393C147.34 408.131 146.104 408.869 144.831 409.63C143.869 410.342 142.908 411.054 141.917 411.788C141.917 412.893 141.917 413.998 141.917 415.136C156.351 416.588 170.562 411.923 182.71 404.07C190.173 397.86 195.995 390.461 200.183 381.651C200.183 380.546 200.183 379.441 200.183 378.302C183.823 378.302 158.577 392.39 145.247 401.742ZM169.698 440.565C168.221 442.119 166.745 443.673 165.224 445.274C163.885 446.551 162.545 447.829 161.166 449.145C148.663 462.334 140.72 476.009 136.923 493.828C141.866 491.444 146.475 488.772 151.073 485.771C152.327 484.966 153.58 484.161 154.871 483.331C164.327 475.913 167.616 466.871 171.466 455.843C171.992 454.391 172.518 452.94 173.06 451.444C175.839 444.343 175.839 444.343 176.877 436.902C173.067 436.519 173.067 436.519 169.698 440.565ZM40.3682 450.297C50.5512 467.338 50.5512 467.338 63.6746 482.108C64.7733 482.108 65.872 482.108 67.0041 482.108C67.0041 483.213 67.0041 484.318 67.0041 485.457C78.1596 495.511 91.2916 500.759 105.293 505.548C103.117 498.63 100.938 495.784 94.7844 492.049C93.441 491.195 92.0976 490.34 90.7136 489.459C89.4818 488.691 88.25 487.923 86.9809 487.131C81.065 483.118 78.088 479.531 74.5994 473.423C69.8457 465.849 64.0872 461.616 56.7035 456.889C55.6736 456.229 54.6436 455.57 53.5825 454.89C48.8411 451.988 46.0125 450.297 40.3682 450.297ZM108.623 451.971C109.199 468.901 112.493 484.296 116.946 500.525C118.045 500.525 119.144 500.525 120.276 500.525C119.954 499.125 119.632 497.724 119.3 496.281C116.023 481.548 113.726 466.957 111.952 451.971C110.853 451.971 109.755 451.971 108.623 451.971ZM79.8017 459.4C78.8747 460.264 77.9476 461.127 76.9925 462.017C77.6945 470.129 80.8688 473.218 86.8769 478.446C89.114 480.43 89.114 480.43 91.3964 482.455C94.926 485.795 94.926 485.795 98.6341 485.457C101.779 476.21 98.6418 470.446 94.6673 462.141C92.2063 458.319 92.2063 458.319 87.7548 457.19C83.4783 456.594 83.4783 456.594 79.8017 459.4ZM103.628 490.48C104.209 495.93 105.329 497.208 109.559 500.944C110.898 501.911 112.237 502.878 113.617 503.874C112.623 498.278 110.727 494.725 106.958 490.48C105.859 490.48 104.76 490.48 103.628 490.48ZM180.206 493.828C175.576 503.143 172.366 512.343 169.802 522.396C169.51 523.501 169.219 524.606 168.919 525.744C166.975 533.689 166.635 540.902 166.888 549.08C172.557 544.023 175.24 539.395 178.021 532.337C178.714 530.61 179.408 528.884 180.122 527.105C182.923 519.395 183.729 513.387 183.64 505.13C183.617 502.423 183.617 502.423 183.594 499.662C183.575 498.289 183.556 496.917 183.536 495.502C182.437 494.95 181.338 494.397 180.206 493.828ZM131.929 530.663C133.287 542.277 140.396 549.681 148.576 557.451C146.397 551.498 143.794 546.476 140.253 541.231C139.394 539.947 138.536 538.663 137.651 537.34C135.28 533.856 135.28 533.856 131.929 530.663ZM76.9925 535.685C80.5682 542.555 84.3547 546.386 90.6225 550.859C92.1225 551.949 93.6226 553.038 95.168 554.161C107.109 561.818 118.866 566.016 132.553 569.59C134.212 570.039 135.871 570.488 137.58 570.95C145.471 573.283 145.471 573.283 153.57 574.194C150.794 565.055 145.571 561.239 137.495 556.568C108.507 541.62 108.507 541.62 76.9925 535.685ZM210.172 542.383C207.192 552.087 208.287 562.486 208.507 572.52C208.535 574.268 208.563 576.016 208.591 577.817C209.205 591.175 212.32 605.278 221.057 615.783C223.406 618.073 223.406 618.073 226.819 617.726C233.738 603.809 227.243 583.387 222.951 569.211C219.889 560.001 215.931 551.169 211.836 542.383C211.287 542.383 210.738 542.383 210.172 542.383ZM148.576 557.451C149.675 558.556 150.774 559.661 151.906 560.8C151.906 559.695 151.906 558.59 151.906 557.451C150.807 557.451 149.708 557.451 148.576 557.451ZM250.125 565.823C249.448 591.976 249.448 591.976 253.455 617.726C256.202 618.278 258.948 618.831 261.778 619.4C262.336 599.806 261.518 583.107 251.79 565.823C251.241 565.823 250.691 565.823 250.125 565.823ZM181.871 569.171C182.228 579.393 184.081 584.453 190.91 592.029C193.645 594.678 193.645 594.678 198.518 595.96C197.5 589.7 195.748 584.506 193.004 578.798C192.324 577.339 191.643 575.88 190.943 574.377C188.834 570.561 188.834 570.561 184.921 569.511C183.914 569.399 182.908 569.287 181.871 569.171ZM103.628 580.891C104.178 581.996 104.727 583.101 105.293 584.24C120.89 589.167 150.069 595.209 165.224 587.588C164.4 585.102 164.4 585.102 163.559 582.566C157.617 580.574 152.24 580.682 146.06 580.728C144.241 580.731 144.241 580.731 142.386 580.735C138.519 580.744 134.652 580.765 130.784 580.787C128.16 580.795 125.537 580.803 122.913 580.809C116.484 580.828 110.056 580.857 103.628 580.891ZM168.553 580.891C168.553 581.996 168.553 583.101 168.553 584.24C169.652 583.687 170.751 583.135 171.883 582.566C170.784 582.013 169.685 581.46 168.553 580.891ZM201.848 600.983C202.947 603.193 204.045 605.403 205.177 607.68C206.825 607.68 208.474 607.68 210.172 607.68C207.902 604.264 207.902 604.264 205.177 600.983C204.079 600.983 202.98 600.983 201.848 600.983ZM126.935 619.4C143.593 637.389 180.749 641.884 204.072 642.925C211.968 642.815 219.246 641.707 226.819 639.491C225.883 636.149 225.883 636.149 223.489 632.794C218.775 630.61 218.775 630.61 213.085 629.236C211.222 628.714 209.359 628.192 207.44 627.654C188.724 623.308 169.567 622.016 150.449 620.865C148.149 620.72 145.849 620.574 143.55 620.427C138.012 620.076 132.473 619.734 126.935 619.4ZM211.836 619.4C212.935 620.505 214.034 621.61 215.166 622.749C215.166 621.643 215.166 620.538 215.166 619.4C214.067 619.4 212.968 619.4 211.836 619.4ZM246.796 642.84C253.537 650.932 260.059 653.528 270.102 656.234C266.313 652.056 262.432 649.426 257.513 646.712C256.206 645.98 254.899 645.249 253.552 644.495C250.259 642.598 250.259 642.598 246.796 642.84ZM196.854 672.977C196.854 673.53 196.854 674.082 196.854 674.652C209.057 676.584 219.739 675.735 231.917 673.919C233.676 673.672 235.434 673.425 237.246 673.17C241.542 672.564 245.834 671.941 250.125 671.303C250.125 670.198 250.125 669.093 250.125 667.954C231.523 667.382 214.941 668.064 196.854 672.977ZM351.674 679.674C357.741 683.742 361.184 683.294 368.322 683.023C368.322 682.47 368.322 681.918 368.322 681.349C362.828 680.796 357.334 680.244 351.674 679.674ZM368.322 683.023C368.322 683.576 368.322 684.128 368.322 684.697C374.365 684.697 380.408 684.697 386.634 684.697C386.634 684.145 386.634 683.592 386.634 683.023C380.591 683.023 374.548 683.023 368.322 683.023Z" fill="white"/>
<path d="M408.275 150.598C407.726 156.124 407.177 161.649 406.611 167.341C412.654 167.341 418.697 167.341 424.923 167.341C423.143 165.241 423.143 165.241 419.096 164.83C414.934 163.993 414.934 163.993 413.27 162.318C413.202 158.412 413.199 154.504 413.27 150.598C418.949 148.762 423.602 149.021 429.501 149.657C431.96 149.912 431.96 149.912 434.469 150.173C435.714 150.314 436.958 150.454 438.241 150.598C439.238 158.633 439.656 166.039 438.241 174.038C432.243 181.51 424.554 184.567 415.871 188.061C405.91 187.006 398.175 183.453 391.628 175.713C390.041 167.066 390.528 159.278 391.628 150.598C397.778 148.537 401.959 149.52 408.275 150.598Z" fill="white"/>
<path d="M391.628 120.461C399.085 120.416 406.541 120.383 413.998 120.356C416.128 120.342 418.258 120.328 420.452 120.314C423.486 120.306 423.486 120.306 426.581 120.298C428.455 120.289 430.33 120.28 432.261 120.271C436.576 120.461 436.576 120.461 438.241 122.135C438.406 126.039 438.457 129.948 438.449 133.855C438.455 137.067 438.455 137.067 438.462 140.343C438.241 145.575 438.241 145.575 436.576 147.25C432.936 147.371 429.293 147.39 425.651 147.354C422.661 147.332 422.661 147.332 419.61 147.309C418.067 147.289 416.524 147.27 414.934 147.25C413.196 142.003 413.379 140.57 414.934 135.53C417.681 135.53 420.428 135.53 423.258 135.53C423.808 134.425 424.357 133.32 424.923 132.181C418.88 132.181 412.837 132.181 406.611 132.181C406.92 134.046 407.229 135.911 407.547 137.832C408.275 143.901 408.275 143.901 406.611 147.25C401.666 147.25 396.722 147.25 391.628 147.25C391.628 138.41 391.628 129.569 391.628 120.461Z" fill="white"/>
<path d="M584.738 103.718C583.723 111.71 582.252 119.453 580.413 127.296C579.63 130.506 579.63 130.506 579.743 133.855C573.662 131.763 571.785 131.058 568.09 125.484C569.738 125.484 571.386 125.484 573.085 125.484C573.085 123.826 573.085 122.169 573.085 120.461C568.353 117.828 568.353 117.828 563.096 117.113C562.547 118.77 561.997 120.428 561.431 122.135C559.234 119.925 557.036 117.715 554.772 115.438C558.51 113.468 562.256 111.518 566.009 109.578C567.593 108.74 567.593 108.74 569.209 107.884C574.949 104.938 578.159 103.718 584.738 103.718ZM574.749 110.415C573.101 111.244 573.101 111.244 571.42 112.09C571.42 113.195 571.42 114.3 571.42 115.438C573.068 115.438 574.716 115.438 576.414 115.438C575.865 113.781 575.315 112.123 574.749 110.415Z" fill="white"/>
<path d="M263.443 97.0212C265.091 98.1262 266.739 99.2312 268.437 100.37C268.437 101.475 268.437 102.58 268.437 103.718C267.133 103.926 265.828 104.133 264.484 104.346C259.88 105.043 259.88 105.043 256.784 108.741C258.432 110.399 260.08 112.056 261.779 113.764C262.877 111.554 263.976 109.344 265.108 107.067C267.305 108.172 269.503 109.277 271.767 110.416C271.767 112.073 271.767 113.731 271.767 115.438C269.569 115.991 267.372 116.543 265.108 117.113C265.657 118.77 266.207 120.428 266.773 122.136C271.577 121.469 273.135 120.813 276.345 117.008C277.032 115.938 277.718 114.867 278.426 113.764C279.525 115.974 280.623 118.184 281.755 120.461C280.21 121.463 278.665 122.464 277.073 123.496C271.959 126.786 271.959 126.786 268.854 130.088C266.773 132.181 266.773 132.181 263.443 132.181C262.516 130.386 261.589 128.59 260.634 126.74C257.424 121 253.633 117.81 248.461 113.764C248.461 112.107 248.461 110.449 248.461 108.741C251.738 105.687 251.738 105.687 255.952 102.567C257.343 101.525 258.733 100.482 260.166 99.4084C261.788 98.2267 261.788 98.2267 263.443 97.0212Z" fill="white"/>
<path d="M293.409 95.3468C292.888 98.4861 292.888 98.4861 291.744 102.044C286.75 105.393 286.75 105.393 280.091 105.393C280.091 104.288 280.091 103.182 280.091 102.044C289.1 95.3468 289.1 95.3468 293.409 95.3468Z" fill="white"/>
<path d="M546.865 81.3247C554.05 82.0474 557.471 84.234 563.096 88.6497C561.997 91.4123 560.899 94.1749 559.767 97.0212C558.668 97.0212 557.569 97.0212 556.437 97.0212C555.888 94.2586 555.338 91.496 554.772 88.6497C549.761 87.0855 548.336 86.9009 543.119 88.6497C542.57 94.1749 542.021 99.7001 541.455 105.393C545.3 105.393 549.146 105.393 553.108 105.393C553.108 106.498 553.108 107.603 553.108 108.741C548.634 110.102 548.634 110.102 543.119 110.416C538.157 106.644 535.445 103.676 533.131 97.8583C533.131 89.1657 538.367 82.3109 546.865 81.3247Z" fill="white"/>
<path d="M523.142 68.5582C526.439 69.6633 529.735 70.7683 533.131 71.9068C530.945 79.0108 528.108 85.3584 524.807 91.9983C523.665 95.7408 523.665 95.7408 523.142 98.6955C520.396 97.0379 517.649 95.3804 514.819 93.6726C515.265 92.6021 515.711 91.5316 516.171 90.4287C520.896 79.7664 520.896 79.7664 523.142 68.5582Z" fill="white"/>
<path d="M325.039 66.8838C326.983 70.5921 326.983 70.5921 328.68 75.1506C329.253 76.6506 329.826 78.1506 330.416 79.6961C331.698 83.6267 331.698 83.6267 331.698 86.9753C332.796 86.9753 333.895 86.9753 335.027 86.9753C334.478 88.6329 333.928 90.2904 333.362 91.9982C329.929 93.1493 329.929 93.1493 326.703 93.6725C325.055 89.8049 323.407 85.9373 321.709 81.9525C321.743 83.5409 321.778 85.1294 321.813 86.766C321.709 91.9982 321.709 91.9982 320.044 95.3468C314.458 94.3434 311.091 92.2557 306.726 88.6496C307.963 90.5662 307.963 90.5662 309.224 92.5214C311.721 97.0211 311.721 97.0211 311.721 102.044C309.523 102.044 307.326 102.044 305.062 102.044C301.732 93.6725 298.403 85.301 295.073 76.9296C297.961 75.7327 297.961 75.7327 301.732 75.2553C305.296 77.6555 305.296 77.6555 308.807 81.0107C309.983 82.1135 311.159 83.2164 312.371 84.3527C313.255 85.2182 314.139 86.0836 315.05 86.9753C315.132 85.5444 315.213 84.1135 315.297 82.6392C315.422 80.7895 315.546 78.9399 315.674 77.0342C315.79 75.1889 315.906 73.3436 316.026 71.4423C316.253 69.938 316.481 68.4337 316.715 66.8838C320.044 65.2095 320.044 65.2095 325.039 66.8838Z" fill="white"/>
<path d="M493.177 58.5125C500.597 58.9515 504.023 59.4788 509.72 64.4772C511.42 66.4973 511.42 66.4973 513.154 68.5583C511.801 71.8022 511.801 71.8022 509.825 75.2554C508.176 75.8079 506.528 76.3605 504.83 76.9297C505.929 81.3498 507.028 85.77 508.16 90.324C505.413 89.7715 502.666 89.219 499.836 88.6497C499.287 84.7821 498.737 80.9145 498.171 76.9297C497.073 76.9297 495.974 76.9297 494.842 76.9297C494.842 80.2448 494.842 83.5599 494.842 86.9755C491.546 85.8704 488.249 84.7654 484.853 83.6269C484.853 82.5218 484.853 81.4168 484.853 80.2783C485.952 80.2783 487.051 80.2783 488.183 80.2783C489.831 73.0956 491.479 65.9129 493.177 58.5125ZM499.836 63.5354C499.287 65.7454 498.737 67.9555 498.171 70.2325C500.369 70.7851 502.566 71.3376 504.83 71.9068C505.38 70.2493 505.929 68.5917 506.495 66.884C504.298 65.7789 502.1 64.6739 499.836 63.5354Z" fill="white"/>
<path d="M358.333 53.4896C360.953 62.7122 362.795 70.6813 361.663 80.2783C357.329 84.3876 354.898 85.3012 348.969 85.3012C343.514 82.9912 342.367 80.6807 340.021 75.2554C338.877 68.8722 338.877 68.8722 338.356 63.5354C337.258 63.5354 336.159 63.5354 335.027 63.5354C335.027 62.4303 335.027 61.3253 335.027 60.1868C338.323 59.6343 341.619 59.0818 345.015 58.5125C345.236 59.6823 345.458 60.8521 345.685 62.0573C345.979 63.581 346.273 65.1048 346.576 66.6747C346.866 68.1898 347.156 69.7049 347.454 71.2659C348.178 75.2547 348.178 75.2547 350.01 78.604C351.658 78.604 353.306 78.604 355.004 78.604C354.815 75.2891 354.603 71.9756 354.38 68.6629C354.264 66.8176 354.148 64.9723 354.028 63.071C353.801 61.5667 353.573 60.0624 353.339 58.5125C352.24 57.96 351.142 57.4075 350.01 56.8382C356.461 53.4896 356.461 53.4896 358.333 53.4896Z" fill="white"/>
<path d="M459.882 50.141C462.519 50.3788 465.154 50.6245 467.79 50.8735C469.258 51.0095 470.726 51.1454 472.238 51.2855C476.02 51.7523 479.524 52.4647 483.189 53.4896C483.189 55.6996 483.189 57.9097 483.189 60.1867C478.244 58.5292 473.3 56.8716 468.206 55.1639C468.206 57.9264 468.206 60.689 468.206 63.5353C470.953 62.9828 473.7 62.4303 476.53 61.861C478.194 66.8839 478.194 66.8839 476.53 70.2325C473.234 69.1274 469.937 68.0224 466.541 66.8839C466.541 70.7515 466.541 74.6191 466.541 78.6039C463.245 78.0514 459.949 77.4989 456.553 76.9296C456.793 75.9779 457.034 75.0261 457.281 74.0454C459.242 65.8414 460.239 58.5718 459.882 50.141Z" fill="white"/>
<path d="M386.634 48.4666C389.381 48.4666 392.127 48.4666 394.958 48.4666C395.058 49.9796 395.159 51.4925 395.263 53.0513C395.403 55.0261 395.542 57.0009 395.686 59.0356C395.821 60.9974 395.956 62.9593 396.096 64.9806C396.434 70.2758 396.434 70.2758 398.287 75.2553C395.478 76.6156 395.478 76.6156 391.628 76.9296C387.258 73.0578 387.258 73.0578 383.304 68.5581C382.206 67.4531 381.107 66.348 379.975 65.2095C380.524 69.6297 381.074 74.0498 381.64 78.6039C378.893 78.6039 376.146 78.6039 373.316 78.6039C372.217 69.7636 371.118 60.9233 369.986 51.8152C372.184 51.2627 374.381 50.7102 376.645 50.1409C380.491 54.561 384.336 58.9812 388.299 63.5352C387.749 58.5626 387.2 53.5899 386.634 48.4666Z" fill="white"/>
<path d="M436.576 46.7924C441.942 51.2079 443.664 56.3675 446.044 62.8028C447.135 65.7067 447.135 65.7067 448.249 68.6693C449.894 73.581 449.894 73.581 449.894 76.9296C446.048 76.3771 442.203 75.8246 438.241 75.2553C438.79 72.4927 439.34 69.7301 439.906 66.8839C436.609 66.8839 433.313 66.8839 429.917 66.8839C429.917 69.6464 429.917 72.409 429.917 75.2553C426.621 74.7028 423.325 74.1503 419.929 73.581C425.478 64.6515 431.027 55.7219 436.576 46.7924ZM434.911 56.8381C434.362 58.4957 433.813 60.1532 433.247 61.861C434.895 62.4135 436.543 62.966 438.241 63.5353C437.142 61.3252 436.043 59.1151 434.911 56.8381Z" fill="white"/>
<path d="M603.06 41.6403C606.586 43.5563 610.134 45.4282 613.682 47.3025C661.29 72.819 704.663 109.472 737.894 152.273C739.188 153.881 740.482 155.489 741.815 157.145C783.977 210.471 809.531 273.361 822.795 339.793C823.075 341.131 823.355 342.47 823.643 343.848C833.316 391.918 831.53 447.75 821.131 495.502C820.738 497.335 820.345 499.167 819.94 501.055C811.514 539.125 798.704 575.922 779.45 609.849C777.183 613.886 775.087 618.01 772.957 622.121C756.913 651.422 735.958 677.453 712.923 701.44C711.388 703.038 711.388 703.038 709.823 704.669C706.64 707.967 703.439 711.248 700.229 714.521C698.72 716.071 698.72 716.071 697.18 717.653C694.724 720.129 692.177 722.514 689.616 724.88C688.518 724.88 687.419 724.88 686.287 724.88C686.287 725.985 686.287 727.09 686.287 728.229C682.811 731.266 679.327 734.107 675.674 736.914C674.605 737.745 673.537 738.576 672.436 739.431C663.913 746.016 655.266 752.354 646.333 758.366C644.73 759.473 643.127 760.58 641.475 761.721C587.099 798.245 526.143 818.707 461.547 827.012C460.245 827.183 458.942 827.355 457.601 827.532C403.707 833.825 346.75 827.891 295.073 811.943C293.101 811.355 293.101 811.355 291.089 810.754C233.074 793.307 179.326 761.426 135.258 719.857C132.91 717.788 130.552 715.729 128.183 713.683C53.171 647.921 8.76513 544.694 0.941309 446.058C-6.3615 333.063 29.0231 228.032 100.286 141.285C102.59 138.472 104.866 135.637 107.12 132.783C116.406 121.2 116.406 121.2 123.605 118.787C125.618 115.438 125.618 115.438 126.935 112.09C128.033 112.09 129.132 112.09 130.264 112.09C130.264 110.985 130.264 109.88 130.264 108.741C134.285 104.418 139.062 100.8 143.582 97.0211C144.502 96.2358 145.423 95.4504 146.371 94.6413C267.181 -8.35492 434.316 -29.2519 603.06 41.6403ZM158.565 110.415C157.279 111.52 155.994 112.626 154.669 113.764C89.8199 171.064 44.1594 247.609 27.0504 333.096C26.7264 334.658 26.4023 336.22 26.0685 337.829C16.0577 387.931 16.5942 442.189 27.0504 492.154C27.3621 493.658 27.6738 495.163 27.9949 496.713C30.085 506.47 32.5974 516.059 35.3741 525.64C35.7569 526.996 36.1396 528.352 36.534 529.749C52.6035 585.653 83.1923 638.137 122.909 680.387C126.376 684.099 129.646 687.885 132.865 691.813C134.204 693.332 135.543 694.852 136.923 696.417C138.022 696.417 139.121 696.417 140.253 696.417C140.253 697.522 140.253 698.627 140.253 699.766C141.351 699.766 142.45 699.766 143.582 699.766C143.582 700.871 143.582 701.976 143.582 703.114C146.082 705.764 146.082 705.764 149.376 708.484C151.209 710.05 151.209 710.05 153.079 711.647C181.579 735.421 211.374 756.257 245.131 771.76C246.439 772.366 247.747 772.972 249.095 773.597C294.087 794.25 342.261 808.572 392.038 808.994C393.637 809.01 395.236 809.026 396.883 809.043C430.605 809.318 463.473 809.562 496.507 801.898C498.142 801.53 499.777 801.162 501.461 800.783C554.576 788.579 604.319 766.051 647.998 733.252C648.923 732.565 649.848 731.878 650.801 731.171C664.535 720.959 677.303 709.991 689.616 698.092C690.464 697.275 691.313 696.459 692.187 695.618C745.26 644.248 782.806 575.923 799.489 503.874C799.949 501.894 799.949 501.894 800.417 499.874C823.127 398.886 804.316 292.01 751.231 203.692C748.018 198.727 744.677 193.906 741.223 189.107C740.472 188.061 739.72 187.014 738.946 185.936C728.736 171.784 718.125 158.38 706.264 145.576C704.209 143.211 702.162 140.84 700.125 138.46C695.169 132.757 690.139 127.297 684.622 122.135C683.523 122.135 682.425 122.135 681.293 122.135C680.743 120.478 680.194 118.82 679.628 117.113C676.219 114.135 672.818 111.37 669.223 108.637C667.066 106.975 664.91 105.314 662.753 103.653C661.12 102.402 661.12 102.402 659.453 101.127C656.66 98.9582 653.921 96.7188 651.191 94.4704C585.716 41.1346 498.05 15.7306 414.726 16.1319C413.396 16.135 412.065 16.138 410.694 16.1412C318.083 16.4964 228.966 49.8793 158.565 110.415Z" fill="white"/>
</svg>
